<?xml version="1.0" encoding="utf-8"?>
<svg width="200px" height="200px" viewBox="0 0 200 200" version="1.1" xmlns:xlink="http://www.w3.org/1999/xlink" xmlns="http://www.w3.org/2000/svg">
  <defs>
    <filter id="filter_1">
      <feColorMatrix in="SourceGraphic" type="matrix" values="0 0 0 0 0 0 0 0 0 0.23137255 0 0 0 0 0 0 0 0 1 0" />
    </filter>
  </defs>
  <g id="Instagram-icon-4" filter="url(#filter_1)">
    <path d="M58.0529 0C26.0817 0 0 26.0817 0 58.0529L0 141.947C0 173.918 26.0817 200 58.0529 200L141.947 200C173.918 200 200 173.918 200 141.947L200 58.0529C200 26.0817 173.918 0 141.947 0L58.0529 0ZM58.0529 15.3846L141.947 15.3846C165.595 15.3846 184.615 34.375 184.615 58.0529L184.615 141.947C184.615 165.595 165.625 184.615 141.947 184.615L58.0529 184.615C34.405 184.615 15.3846 165.625 15.3846 141.947L15.3846 58.0529C15.3846 34.405 34.375 15.3846 58.0529 15.3846L58.0529 15.3846ZM157.692 30.7692C151.322 30.7692 146.154 35.9375 146.154 42.3077C146.154 48.6779 151.322 53.8461 157.692 53.8461C164.062 53.8461 169.231 48.6779 169.231 42.3077C169.231 35.9375 164.062 30.7692 157.692 30.7692L157.692 30.7692ZM100 46.1538C70.3425 46.1538 46.1538 70.3426 46.1538 100C46.1538 129.657 70.3425 153.846 100 153.846C129.657 153.846 153.846 129.657 153.846 100C153.846 70.3426 129.657 46.1538 100 46.1538L100 46.1538ZM100 61.5385C121.334 61.5385 138.462 78.6659 138.462 100C138.462 121.334 121.334 138.462 100 138.462C78.6659 138.462 61.5385 121.334 61.5385 100C61.5385 78.6659 78.6659 61.5385 100 61.5385L100 61.5385Z" id="Shape" fill="#FFFFFF" fill-rule="evenodd" stroke="none" />
  </g>
</svg>